<svg viewBox="0 0 1280 320" xmlns="http://www.w3.org/2000/svg" width="1280" height="320" role="img">
<title>Adhyatma Singh Chauhan — GitHub Profile Banner</title>
<desc>Premium cyberpunk developer banner with animated circuit traces, terminal widget, and hexagonal code emblem</desc>
<defs>
  <linearGradient id="bg" x1="0%" y1="0%" x2="100%" y2="100%">
    <stop offset="0%" stop-color="#040506"/>
    <stop offset="50%" stop-color="#081312"/>
    <stop offset="100%" stop-color="#0A1E17"/>
  </linearGradient>
  <linearGradient id="nameGrad" x1="0%" y1="0%" x2="100%" y2="0%">
    <stop offset="0%" stop-color="#E9FFD7"/>
    <stop offset="50%" stop-color="#C8FFA0"/>
    <stop offset="100%" stop-color="#A7FF6D"/>
  </linearGradient>
  <linearGradient id="hexGlow" x1="0%" y1="0%" x2="100%" y2="100%">
    <stop offset="0%" stop-color="#6AFF3A" stop-opacity="0.15"/>
    <stop offset="100%" stop-color="#0A1E17" stop-opacity="0"/>
  </linearGradient>
  <linearGradient id="sweep" x1="0%" y1="0%" x2="100%" y2="0%">
    <stop offset="0%" stop-color="#A7FF6D" stop-opacity="0"/>
    <stop offset="50%" stop-color="#A7FF6D" stop-opacity="0.25"/>
    <stop offset="100%" stop-color="#A7FF6D" stop-opacity="0"/>
  </linearGradient>
  <linearGradient id="termBg" x1="0%" y1="0%" x2="100%" y2="100%">
    <stop offset="0%" stop-color="#0D2016" stop-opacity="0.95"/>
    <stop offset="100%" stop-color="#061009" stop-opacity="0.9"/>
  </linearGradient>
  <radialGradient id="ptGlow" cx="50%" cy="50%" r="50%">
    <stop offset="0%" stop-color="#6AFF3A" stop-opacity="0.9"/>
    <stop offset="100%" stop-color="#6AFF3A" stop-opacity="0"/>
  </radialGradient>
  <radialGradient id="hexFill" cx="50%" cy="50%" r="50%">
    <stop offset="0%" stop-color="#0F2A1A"/>
    <stop offset="100%" stop-color="#050E08"/>
  </radialGradient>
  <style>
    @keyframes blink { 0%,49%{opacity:1} 50%,100%{opacity:0} }
    @keyframes typeReveal {
      0%{clip-path:inset(0 100% 0 0)}
      100%{clip-path:inset(0 0% 0 0)}
    }
    @keyframes fadeInTagline { 0%{opacity:0} 100%{opacity:1} }
    @keyframes hexPulse { 0%,100%{opacity:0.6} 50%{opacity:1} }
    @keyframes glowBreath { 0%,100%{opacity:0.5} 50%{opacity:1} }
    @keyframes particleDrift1 {
      0%{transform:translate(0,0);opacity:0.8}
      50%{transform:translate(4px,-8px);opacity:0.4}
      100%{transform:translate(0,0);opacity:0.8}
    }
    @keyframes particleDrift2 {
      0%{transform:translate(0,0);opacity:0.5}
      50%{transform:translate(-5px,6px);opacity:0.9}
      100%{transform:translate(0,0);opacity:0.5}
    }
    @keyframes particleDrift3 {
      0%{transform:translate(0,0);opacity:0.7}
      50%{transform:translate(6px,4px);opacity:0.3}
      100%{transform:translate(0,0);opacity:0.7}
    }
    @keyframes terminalFadeIn { 0%{opacity:0} 100%{opacity:1} }
  </style>
</defs>

<!-- BACKGROUND -->
<rect width="1280" height="320" fill="url(#bg)"/>

<!-- Hex grid overlay -->
<g opacity="0.04" stroke="#3AFF6A" stroke-width="0.5" fill="none">
  <polygon points="640,30 660,42 660,66 640,78 620,66 620,42"/>
  <polygon points="700,30 720,42 720,66 700,78 680,66 680,42"/>
  <polygon points="760,30 780,42 780,66 760,78 740,66 740,42"/>
  <polygon points="820,30 840,42 840,66 820,78 800,66 800,42"/>
  <polygon points="880,30 900,42 900,66 880,78 860,66 860,42"/>
  <polygon points="580,30 600,42 600,66 580,78 560,66 560,42"/>
  <polygon points="520,30 540,42 540,66 520,78 500,66 500,42"/>
  <polygon points="670,78 690,90 690,114 670,126 650,114 650,90"/>
  <polygon points="730,78 750,90 750,114 730,126 710,114 710,90"/>
  <polygon points="790,78 810,90 810,114 790,126 770,114 770,90"/>
  <polygon points="850,78 870,90 870,114 850,126 830,114 830,90"/>
  <polygon points="910,78 930,90 930,114 910,126 890,114 890,90"/>
  <polygon points="610,78 630,90 630,114 610,126 590,114 590,90"/>
  <polygon points="550,78 570,90 570,114 550,126 530,114 530,90"/>
  <polygon points="490,78 510,90 510,114 490,126 470,114 470,90"/>
  <polygon points="640,126 660,138 660,162 640,174 620,162 620,138"/>
  <polygon points="700,126 720,138 720,162 700,174 680,162 680,138"/>
  <polygon points="760,126 780,138 780,162 760,174 740,162 740,138"/>
  <polygon points="820,126 840,138 840,162 820,174 800,162 800,138"/>
  <polygon points="580,126 600,138 600,162 580,174 560,162 560,138"/>
</g>

<!-- PCB trace static background -->
<g fill="none" stroke="#1A4A28" stroke-width="0.6" opacity="0.4">
  <polyline points="0,80 280,80 310,65 450,65"/>
  <polyline points="0,100 260,100 290,115 450,115"/>
  <polyline points="0,180 200,180 230,195 320,195"/>
  <polyline points="0,240 180,240 210,255 350,255"/>
  <polyline points="0,260 250,260 270,245 380,245"/>
  <polyline points="830,60 950,60 970,75 1280,75"/>
  <polyline points="830,130 960,130 980,115 1280,115"/>
  <polyline points="830,200 970,200 990,215 1280,215"/>
  <polyline points="830,250 1000,250 1020,235 1280,235"/>
  <polyline points="400,15 420,35 820,35 840,15"/>
  <polyline points="400,305 420,285 820,285 840,305"/>
</g>

<!-- Animated circuit traces -->
<g fill="none" stroke="#3AFF6A" stroke-width="0.8">
  <polyline points="0,80 280,80 310,65 450,65" stroke-dasharray="400" stroke-dashoffset="400" opacity="0.3">
    <animate attributeName="stroke-dashoffset" from="400" to="0" dur="4s" begin="0.5s" fill="freeze"/>
    <animate attributeName="opacity" values="0.1;0.5;0.3" dur="4s" begin="0.5s" fill="freeze"/>
  </polyline>
  <polyline points="0,100 260,100 290,115 450,115" stroke-dasharray="350" stroke-dashoffset="350" opacity="0.2">
    <animate attributeName="stroke-dashoffset" from="350" to="0" dur="5s" begin="1s" fill="freeze"/>
    <animate attributeName="opacity" values="0.05;0.4;0.2" dur="5s" begin="1s" fill="freeze"/>
  </polyline>
  <polyline points="830,130 960,130 980,115 1280,115" stroke-dasharray="380" stroke-dashoffset="380" opacity="0.25">
    <animate attributeName="stroke-dashoffset" from="380" to="0" dur="4.5s" begin="1.5s" fill="freeze"/>
    <animate attributeName="opacity" values="0.05;0.5;0.25" dur="4.5s" begin="1.5s" fill="freeze"/>
  </polyline>
  <polyline points="0,240 180,240 210,255 350,255" stroke-dasharray="300" stroke-dashoffset="300" opacity="0.2">
    <animate attributeName="stroke-dashoffset" from="300" to="0" dur="6s" begin="2s" fill="freeze"/>
  </polyline>
  <polyline points="830,200 970,200 990,215 1280,215" stroke-dasharray="340" stroke-dashoffset="340" opacity="0.2">
    <animate attributeName="stroke-dashoffset" from="340" to="0" dur="5s" begin="2.5s" fill="freeze"/>
  </polyline>
</g>

<!-- Circuit nodes -->
<g fill="#3AFF6A">
  <circle cx="310" cy="65" r="2.5" opacity="0.5">
    <animate attributeName="opacity" values="0.2;0.9;0.5" dur="3s" repeatCount="indefinite"/>
  </circle>
  <circle cx="280" cy="80" r="2" opacity="0.4">
    <animate attributeName="opacity" values="0.1;0.7;0.4" dur="4s" begin="0.7s" repeatCount="indefinite"/>
  </circle>
  <circle cx="290" cy="115" r="2.5" opacity="0.4">
    <animate attributeName="opacity" values="0.2;0.8;0.4" dur="2.5s" begin="1.2s" repeatCount="indefinite"/>
  </circle>
  <circle cx="960" cy="130" r="2" opacity="0.4">
    <animate attributeName="opacity" values="0.1;0.7;0.4" dur="3.5s" begin="0.5s" repeatCount="indefinite"/>
  </circle>
  <circle cx="980" cy="115" r="2.5" opacity="0.5">
    <animate attributeName="opacity" values="0.2;0.9;0.5" dur="2.8s" begin="1s" repeatCount="indefinite"/>
  </circle>
  <circle cx="970" cy="200" r="2" opacity="0.35">
    <animate attributeName="opacity" values="0.1;0.6;0.35" dur="4.2s" begin="0.3s" repeatCount="indefinite"/>
  </circle>
  <circle cx="210" cy="255" r="2" opacity="0.3">
    <animate attributeName="opacity" values="0.1;0.6;0.3" dur="3.8s" begin="1.5s" repeatCount="indefinite"/>
  </circle>
</g>

<!-- Floating particles -->
<circle cx="420" cy="50" r="1.5" fill="url(#ptGlow)" style="animation:particleDrift1 5s ease-in-out infinite"/>
<circle cx="750" cy="90" r="1" fill="url(#ptGlow)" style="animation:particleDrift2 6s ease-in-out infinite 1s"/>
<circle cx="600" cy="270" r="1.5" fill="url(#ptGlow)" style="animation:particleDrift3 4.5s ease-in-out infinite 0.5s"/>
<circle cx="900" cy="240" r="1" fill="url(#ptGlow)" style="animation:particleDrift1 7s ease-in-out infinite 2s"/>
<circle cx="480" cy="280" r="1.2" fill="url(#ptGlow)" style="animation:particleDrift2 5.5s ease-in-out infinite 1.5s"/>
<circle cx="700" cy="40" r="1" fill="url(#ptGlow)" style="animation:particleDrift3 6.5s ease-in-out infinite 0.8s"/>
<circle cx="860" cy="290" r="1.5" fill="url(#ptGlow)" style="animation:particleDrift1 5.2s ease-in-out infinite 2.5s"/>

<!-- Scan lines -->
<g opacity="0.025">
  <rect width="1280" height="1" y="40" fill="#3AFF6A"/>
  <rect width="1280" height="1" y="80" fill="#3AFF6A"/>
  <rect width="1280" height="1" y="120" fill="#3AFF6A"/>
  <rect width="1280" height="1" y="160" fill="#3AFF6A"/>
  <rect width="1280" height="1" y="200" fill="#3AFF6A"/>
  <rect width="1280" height="1" y="240" fill="#3AFF6A"/>
  <rect width="1280" height="1" y="280" fill="#3AFF6A"/>
</g>

<!-- HUD BORDER -->
<rect x="14" y="12" width="1252" height="296" rx="3" fill="none" stroke="#2AE85A" stroke-width="0.8" opacity="0.6" style="animation:glowBreath 4s ease-in-out infinite"/>
<rect x="12" y="10" width="1256" height="300" rx="4" fill="none" stroke="#1AFF5A" stroke-width="0.3" opacity="0.25" style="animation:glowBreath 4s ease-in-out infinite 1s"/>

<!-- Corner bracket — top-left -->
<path d="M14,42 L14,14 L58,14" fill="none" stroke="#4AFF7A" stroke-width="1.5" stroke-linecap="square" opacity="0.9"/>
<path d="M14,46 L14,16 L60,16" fill="none" stroke="#4AFF7A" stroke-width="0.4" stroke-linecap="square" opacity="0.4"/>
<line x1="14" y1="24" x2="26" y2="24" stroke="#4AFF7A" stroke-width="0.6" opacity="0.5"/>
<line x1="24" y1="14" x2="24" y2="26" stroke="#4AFF7A" stroke-width="0.6" opacity="0.5"/>
<rect x="14" y="14" width="4" height="4" fill="#4AFF7A" opacity="0.7"/>

<!-- Corner bracket — top-right -->
<path d="M1266,42 L1266,14 L1222,14" fill="none" stroke="#4AFF7A" stroke-width="1.5" stroke-linecap="square" opacity="0.9"/>
<path d="M1266,46 L1266,16 L1220,16" fill="none" stroke="#4AFF7A" stroke-width="0.4" stroke-linecap="square" opacity="0.4"/>
<line x1="1266" y1="24" x2="1254" y2="24" stroke="#4AFF7A" stroke-width="0.6" opacity="0.5"/>
<line x1="1256" y1="14" x2="1256" y2="26" stroke="#4AFF7A" stroke-width="0.6" opacity="0.5"/>
<rect x="1248" y="14" width="4" height="4" fill="#4AFF7A" opacity="0.7"/>

<!-- Corner bracket — bottom-left -->
<path d="M14,278 L14,306 L58,306" fill="none" stroke="#4AFF7A" stroke-width="1.5" stroke-linecap="square" opacity="0.9"/>
<path d="M14,274 L14,304 L60,304" fill="none" stroke="#4AFF7A" stroke-width="0.4" stroke-linecap="square" opacity="0.4"/>
<rect x="14" y="302" width="4" height="4" fill="#4AFF7A" opacity="0.7"/>

<!-- Corner bracket — bottom-right -->
<path d="M1266,278 L1266,306 L1222,306" fill="none" stroke="#4AFF7A" stroke-width="1.5" stroke-linecap="square" opacity="0.9"/>
<path d="M1266,274 L1266,304 L1220,304" fill="none" stroke="#4AFF7A" stroke-width="0.4" stroke-linecap="square" opacity="0.4"/>
<rect x="1248" y="302" width="4" height="4" fill="#4AFF7A" opacity="0.7"/>

<!-- Top center HUD accent -->
<line x1="570" y1="12" x2="710" y2="12" stroke="#4AFF7A" stroke-width="1" opacity="0.6"/>
<polyline points="570,12 560,22 560,12" fill="none" stroke="#4AFF7A" stroke-width="0.8" opacity="0.5"/>
<polyline points="710,12 720,22 720,12" fill="none" stroke="#4AFF7A" stroke-width="0.8" opacity="0.5"/>
<line x1="600" y1="12" x2="640" y2="12" stroke="#4AFF7A" stroke-width="2" opacity="0.8"/>
<line x1="645" y1="12" x2="680" y2="12" stroke="#4AFF7A" stroke-width="2" opacity="0.6"/>

<!-- Bottom center HUD accent -->
<line x1="570" y1="308" x2="710" y2="308" stroke="#4AFF7A" stroke-width="1" opacity="0.6"/>
<line x1="600" y1="308" x2="640" y2="308" stroke="#4AFF7A" stroke-width="2" opacity="0.8"/>
<line x1="645" y1="308" x2="680" y2="308" stroke="#4AFF7A" stroke-width="2" opacity="0.6"/>

<!-- Border scan highlight -->
<rect x="14" y="12" width="120" height="1.5" fill="url(#sweep)" opacity="0.8">
  <animateTransform attributeName="transform" type="translate" from="-120,0" to="1380,0" dur="6s" repeatCount="indefinite" begin="2s"/>
</rect>
<rect x="14" y="306" width="120" height="1.5" fill="url(#sweep)" opacity="0.5">
  <animateTransform attributeName="transform" type="translate" from="-120,0" to="1380,0" dur="8s" repeatCount="indefinite" begin="5s"/>
</rect>

<!-- HUD TELEMETRY -->
<text x="28" y="30" font-family="'Courier New',monospace" font-size="9" fill="#3AFF6A" opacity="0.7">SYS-DEV: ONLINE</text>
<circle cx="118" cy="26" r="3" fill="#3AFF6A" opacity="0.8">
  <animate attributeName="opacity" values="0.4;1;0.4" dur="2s" repeatCount="indefinite"/>
</circle>
<text x="1100" y="30" font-family="'Courier New',monospace" font-size="9" fill="#3AFF6A" opacity="0.7">BUILD_MODE: ACTIVE</text>
<text x="480" y="28" font-family="'Courier New',monospace" font-size="7.5" fill="#3AFF6A" opacity="0.15">01100100 01100101 01110110 01100101 01101100 01101111 01110000 01100101</text>

<!-- Bottom telemetry -->
<text x="28" y="300" font-family="'Courier New',monospace" font-size="9" fill="#3AFF6A" opacity="0.65">HEX: 2F 6A 7B 3C 8E 1A</text>
<text x="320" y="300" font-family="'Courier New',monospace" font-size="9" fill="#3AFF6A" opacity="0.65">STATUS: FOCUSED</text>
<text x="920" y="300" font-family="'Courier New',monospace" font-size="9" fill="#3AFF6A" opacity="0.65">UPTIME: 99.99%</text>
<text x="1100" y="300" font-family="'Courier New',monospace" font-size="9" fill="#3AFF6A" opacity="0.65">NODE: 0x7A1F.3C9D</text>

<!-- Waveform -->
<g transform="translate(570, 293)" fill="none" stroke="#3AFF6A" stroke-width="1" opacity="0.5">
  <path d="M0,0 Q5,4 10,0 Q15,-4 20,0 Q25,4 30,0 Q35,-4 40,0 Q45,4 50,0 Q55,-4 60,0 Q65,4 70,0 Q75,-4 80,0">
    <animate attributeName="d" values="M0,0 Q5,4 10,0 Q15,-4 20,0 Q25,4 30,0 Q35,-4 40,0 Q45,4 50,0 Q55,-4 60,0 Q65,4 70,0 Q75,-4 80,0;M0,0 Q5,-4 10,0 Q15,4 20,0 Q25,-4 30,0 Q35,4 40,0 Q45,-4 50,0 Q55,4 60,0 Q65,-4 70,0 Q75,4 80,0;M0,0 Q5,4 10,0 Q15,-4 20,0 Q25,4 30,0 Q35,-4 40,0 Q45,4 50,0 Q55,-4 60,0 Q65,4 70,0 Q75,-4 80,0" dur="2s" repeatCount="indefinite"/>
  </path>
</g>

<!-- Status dots -->
<g fill="#3AFF6A" opacity="0.7">
  <rect x="430" y="295" width="6" height="6" rx="1"/>
  <rect x="440" y="295" width="6" height="6" rx="1"/>
  <rect x="450" y="295" width="6" height="6" rx="1"/>
  <rect x="460" y="295" width="6" height="6" rx="1"/>
  <rect x="470" y="295" width="6" height="6" rx="1"/>
</g>

<!-- TERMINAL WIDGET -->
<g style="animation:terminalFadeIn 0.5s ease-out both">
  <rect x="32" y="80" width="270" height="160" rx="6" fill="url(#termBg)" stroke="#2AE85A" stroke-width="0.8" opacity="0.95"/>
  <rect x="32" y="80" width="270" height="160" rx="6" fill="none" stroke="#4AFF7A" stroke-width="0.3" opacity="0.4"/>
  <rect x="32" y="80" width="270" height="20" rx="6" fill="#0A1E12" opacity="0.8"/>
  <rect x="32" y="92" width="270" height="8" fill="#0A1E12" opacity="0.8"/>
  <circle cx="48" cy="90" r="4" fill="#1A3A22" stroke="#2AE85A" stroke-width="0.5"/>
  <circle cx="62" cy="90" r="4" fill="#1A3A22" stroke="#2AE85A" stroke-width="0.5"/>
  <circle cx="76" cy="90" r="4" fill="#1A3A22" stroke="#2AE85A" stroke-width="0.5"/>
  <text x="46" y="120" font-family="'Courier New',monospace" font-size="12" fill="#3AFF6A" opacity="0.9">&#62; whoami</text>
  <text x="46" y="138" font-family="'Courier New',monospace" font-size="12" fill="#3AFF6A" opacity="0.8">&#62; Developer</text>
  <text x="46" y="156" font-family="'Courier New',monospace" font-size="12" fill="#3AFF6A" opacity="0.8">&#62; Problem Solver</text>
  <text x="46" y="174" font-family="'Courier New',monospace" font-size="12" fill="#3AFF6A" opacity="0.8">&#62; Tech Enthusiast</text>
  <text x="46" y="192" font-family="'Courier New',monospace" font-size="12" fill="#3AFF6A" opacity="0.8">&#62; Lifelong Learner </text>
  <rect x="194" y="181" width="9" height="14" fill="#3AFF6A" style="animation:blink 1s step-end infinite"/>
</g>

<!-- PCB traces from terminal to center -->
<polyline points="302,130 350,130 380,115 480,115" fill="none" stroke="#3AFF6A" stroke-width="0.8" stroke-dasharray="6,3" opacity="0.25">
  <animate attributeName="stroke-dashoffset" from="20" to="0" dur="1.5s" repeatCount="indefinite"/>
</polyline>
<polyline points="302,155 370,155 400,170 480,170" fill="none" stroke="#3AFF6A" stroke-width="0.6" stroke-dasharray="5,4" opacity="0.2">
  <animate attributeName="stroke-dashoffset" from="18" to="0" dur="2s" repeatCount="indefinite"/>
</polyline>
<polyline points="302,175 360,175 390,190 480,190" fill="none" stroke="#3AFF6A" stroke-width="0.5" stroke-dasharray="4,5" opacity="0.15">
  <animate attributeName="stroke-dashoffset" from="15" to="0" dur="2.5s" repeatCount="indefinite"/>
</polyline>
<circle cx="350" cy="130" r="2" fill="#3AFF6A" opacity="0.5">
  <animate attributeName="opacity" values="0.2;0.8;0.2" dur="1.5s" repeatCount="indefinite"/>
</circle>
<circle cx="400" cy="170" r="2" fill="#3AFF6A" opacity="0.4">
  <animate attributeName="opacity" values="0.1;0.7;0.1" dur="2s" begin="0.5s" repeatCount="indefinite"/>
</circle>

<!-- NAME (typing reveal) -->
<text
  x="648"
  y="168"
  font-family="'Courier New', 'Lucida Console', monospace"
  font-size="46"
  font-weight="700"
  fill="url(#nameGrad)"
  text-anchor="middle"
  letter-spacing="2"
  filter="drop-shadow(0 0 8px #6AFF3A55)"
  style="clip-path:inset(0 100% 0 0);animation:typeReveal 2.4s steps(22,end) 0.3s both">Adhyatma Singh Chauhan</text>

<!-- Typing cursor -->
<rect x="892" y="134" width="10" height="44" fill="#C8FFA0" style="animation:blink 0.8s step-end 2.7s infinite">
  <animate attributeName="opacity" values="1;0" dur="2.7s" fill="freeze" begin="0s"/>
</rect>

<!-- Tagline -->
<text
  x="648"
  y="215"
  font-family="'Courier New', 'Lucida Console', monospace"
  font-size="18"
  fill="#8AEF5A"
  text-anchor="middle"
  letter-spacing="4"
  opacity="0"
  filter="drop-shadow(0 0 4px #4AFF6A33)"
  style="animation:fadeInTagline 1s ease-out 2.8s both">&#60; Code. Innovate. Elevate. &#62;</text>

<!-- Decorative line under name -->
<line x1="410" y1="180" x2="886" y2="180" stroke="#3AFF6A" stroke-width="0.5" opacity="0" style="animation:fadeInTagline 0.8s ease-out 2.6s both"/>

<!-- HEX EMBLEM -->
<g transform="translate(1080, 160)">
  <polygon points="0,-80 69,-40 69,40 0,80 -69,40 -69,-40" fill="none" stroke="#4AFF7A" stroke-width="0.6" opacity="0.2" style="animation:hexPulse 5s ease-in-out infinite"/>
  <polygon points="0,-72 62,-36 62,36 0,72 -62,36 -62,-36" fill="url(#hexFill)" stroke="#3AFF6A" stroke-width="1.2" opacity="0.9" style="animation:hexPulse 4s ease-in-out infinite"/>
  <polygon points="0,-60 52,-30 52,30 0,60 -52,30 -52,-30" fill="none" stroke="#2AE85A" stroke-width="0.6" opacity="0.4" style="animation:hexPulse 4s ease-in-out infinite 1s"/>
  <polygon points="0,-48 42,-24 42,24 0,48 -42,24 -42,-24" fill="#081A10" stroke="#4AFF7A" stroke-width="0.8" opacity="0.8" style="animation:hexPulse 4s ease-in-out infinite 0.5s"/>
  <text x="0" y="12" font-family="'Courier New',monospace" font-size="34" font-weight="700" fill="#A7FF6D" text-anchor="middle" filter="drop-shadow(0 0 6px #6AFF3A66)" style="animation:hexPulse 3.5s ease-in-out infinite">&lt;/&gt;</text>
  <line x1="-62" y1="0" x2="-110" y2="0" stroke="#3AFF6A" stroke-width="0.6" opacity="0.3" stroke-dasharray="4,3">
    <animate attributeName="stroke-dashoffset" from="14" to="0" dur="1.2s" repeatCount="indefinite"/>
  </line>
  <line x1="-62" y1="-36" x2="-90" y2="-60" stroke="#3AFF6A" stroke-width="0.5" opacity="0.2" stroke-dasharray="3,4">
    <animate attributeName="stroke-dashoffset" from="10" to="0" dur="1.8s" repeatCount="indefinite"/>
  </line>
  <line x1="-62" y1="36" x2="-90" y2="60" stroke="#3AFF6A" stroke-width="0.5" opacity="0.2" stroke-dasharray="3,4">
    <animate attributeName="stroke-dashoffset" from="10" to="0" dur="2.2s" repeatCount="indefinite"/>
  </line>
  <circle cx="-62" cy="0" r="2.5" fill="#3AFF6A" opacity="0.6">
    <animate attributeName="opacity" values="0.3;0.9;0.3" dur="2s" repeatCount="indefinite"/>
  </circle>
  <circle cx="62" cy="0" r="2.5" fill="#3AFF6A" opacity="0.5">
    <animate attributeName="opacity" values="0.2;0.8;0.2" dur="2.5s" begin="0.5s" repeatCount="indefinite"/>
  </circle>
  <circle cx="0" cy="-72" r="2" fill="#3AFF6A" opacity="0.4">
    <animate attributeName="opacity" values="0.1;0.7;0.1" dur="3s" begin="1s" repeatCount="indefinite"/>
  </circle>
  <rect x="-45" y="-30" width="30" height="60" fill="url(#sweep)" opacity="0" rx="2">
    <animate attributeName="x" values="-55;55" dur="4s" repeatCount="indefinite" begin="3s"/>
    <animate attributeName="opacity" values="0;0.4;0" dur="4s" repeatCount="indefinite" begin="3s"/>
  </rect>
</g>

<!-- HUD side tick marks -->
<g fill="none" stroke="#3AFF6A" opacity="0.4" stroke-width="0.6">
  <line x1="14" y1="130" x2="26" y2="130"/>
  <line x1="14" y1="160" x2="30" y2="160"/>
  <line x1="14" y1="190" x2="26" y2="190"/>
  <line x1="1266" y1="130" x2="1254" y2="130"/>
  <line x1="1266" y1="160" x2="1250" y2="160"/>
  <line x1="1266" y1="190" x2="1254" y2="190"/>
</g>

<!-- Microchip labels -->
<text x="32" y="62" font-family="'Courier New',monospace" font-size="7" fill="#3AFF6A" opacity="0.3">IC-441</text>
<text x="80" y="62" font-family="'Courier New',monospace" font-size="7" fill="#3AFF6A" opacity="0.25">MCU-7</text>
<text x="1100" y="62" font-family="'Courier New',monospace" font-size="7" fill="#3AFF6A" opacity="0.25">SYS-CORE</text>
<text x="1160" y="62" font-family="'Courier New',monospace" font-size="7" fill="#3AFF6A" opacity="0.3">V2.4.1</text>

<!-- Alignment markers center-top -->
<g fill="none" stroke="#3AFF6A" opacity="0.4" stroke-width="0.7">
  <line x1="638" y1="12" x2="638" y2="24"/>
  <line x1="648" y1="12" x2="648" y2="20"/>
  <line x1="658" y1="12" x2="658" y2="24"/>
</g>

<!-- Matrix dots -->
<g fill="#3AFF6A" opacity="0.08">
  <circle cx="920" cy="55" r="1.2"/><circle cx="934" cy="55" r="1.2"/><circle cx="948" cy="55" r="1.2"/>
  <circle cx="962" cy="55" r="1.2"/><circle cx="976" cy="55" r="1.2"/>
  <circle cx="920" cy="68" r="1.2"/><circle cx="934" cy="68" r="1.2"/><circle cx="948" cy="68" r="1.2"/>
  <circle cx="962" cy="68" r="1.2"/><circle cx="976" cy="68" r="1.2"/>
  <circle cx="920" cy="81" r="1.2"/><circle cx="934" cy="81" r="1.2"/><circle cx="948" cy="81" r="1.2"/>
  <circle cx="962" cy="81" r="1.2"/><circle cx="976" cy="81" r="1.2"/>
</g>

<!-- Hex fragments left -->
<g fill="none" stroke="#3AFF6A" opacity="0.07" stroke-width="0.5">
  <polygon points="60,45 74,52 74,66 60,73 46,66 46,52"/>
  <polygon points="100,55 114,62 114,76 100,83 86,76 86,62"/>
</g>

</svg>
