<svg xmlns="http://www.w3.org/2000/svg" viewBox="0 0 850 600" width="850" height="600">
<defs>
  <!-- Background Gradient -->
  <linearGradient id="tkBg" x1="0%" y1="0%" x2="100%" y2="100%">
    <stop offset="0%" stop-color="#040506"/>
    <stop offset="50%" stop-color="#081312"/>
    <stop offset="100%" stop-color="#0A1E17"/>
  </linearGradient>
  
  <!-- Tech Grid Overlay -->
  <pattern id="tkGrid" width="25" height="25" patternUnits="userSpaceOnUse">
    <path d="M 25 0 L 0 0 0 25" fill="none" stroke="#00FF88" stroke-width="0.5" stroke-opacity="0.04"/>
  </pattern>
  
  <!-- Glowing filter -->
  <filter id="tkGlow" x="-20%" y="-20%" width="140%" height="140%">
    <feGaussianBlur stdDeviation="3" result="b"/>
    <feMerge><feMergeNode in="b"/><feMergeNode in="b"/><feMergeNode in="SourceGraphic"/></feMerge>
  </filter>

  <!-- ================= MONOCHROME TECHNOLOGY LOGOS ================= -->
  
  <!-- Java -->
  <g id="logo-java">
    <path d="M6 9h10v6c0 2-1.5 3.5-3.5 3.5h-3C7.5 18.5 6 17 6 15V9z M16 11h2c1 0 1.8.8 1.8 1.8v.4c0 1-.8 1.8-1.8 1.8h-2 M4 21h16 M10 7c0-2 .8-3 1.5-4 M13 7c0-2 .8-3 1.5-4 M7 7c0-1.5.5-2.5 1-3.5" fill="none" stroke="currentColor" stroke-width="1.5" stroke-linecap="round" stroke-linejoin="round"/>
  </g>
  
  <!-- JavaScript -->
  <g id="logo-javascript">
    <rect x="3" y="3" width="18" height="18" rx="2" fill="none" stroke="currentColor" stroke-width="1.5"/>
    <path d="M10 10v4.5c0 .8-.7 1.5-1.5 1.5h-.5M13.5 15.5c.5.5 1.2.7 1.8.7.8 0 1.5-.5 1.5-1.2 0-.8-.6-1-1.2-1.2l-.8-.3c-.8-.3-1.3-.7-1.3-1.5 0-.8.7-1.5 1.5-1.5.6 0 1.2.2 1.6.6" fill="none" stroke="currentColor" stroke-width="1.5" stroke-linecap="round" stroke-linejoin="round"/>
  </g>
  
  <!-- Python -->
  <g id="logo-python">
    <path d="M12 2A4 4 0 0 0 8 6v2h4v1H6a4 4 0 0 0-4 4v3a4 4 0 0 0 4 4h2v-2a2 2 0 0 1 2-2h4a2 2 0 0 0 2-2v-4a4 4 0 0 0-4-4h-2V6a2 2 0 0 1 2-2h2V2H12z" fill="none" stroke="currentColor" stroke-width="1.5" stroke-linejoin="round"/>
    <path d="M12 22A4 4 0 0 0 16 18v-2h-4v-1h6a4 4 0 0 0 4-4V8a4 4 0 0 0-4-4h-2v2a2 2 0 0 1-2 2h-4a2 2 0 0 0-2 2v4a4 4 0 0 0 4 4h2v2a2 2 0 0 1-2 2h-2v2h2z" fill="none" stroke="currentColor" stroke-width="1.5" stroke-linejoin="round"/>
    <circle cx="9.5" cy="5.5" r="0.75" fill="currentColor"/>
    <circle cx="14.5" cy="18.5" r="0.75" fill="currentColor"/>
  </g>
  
  <!-- Go -->
  <g id="logo-go">
    <path d="M8 9a3 3 0 1 0 0 6h3v-2.5H9.5M17.5 9.5a3 3 0 1 0 0 5 3 3 0 0 0 0-5z M4 6h16" fill="none" stroke="currentColor" stroke-width="1.5" stroke-linecap="round" stroke-linejoin="round"/>
  </g>
  
  <!-- TypeScript -->
  <g id="logo-typescript">
    <rect x="3" y="3" width="18" height="18" rx="2" fill="none" stroke="currentColor" stroke-width="1.5"/>
    <path d="M9 10h4M11 10v6M15 15.5c.4.4 1 .6 1.5.6.6 0 1-.3 1-.7s-.4-.6-.8-.8l-.6-.2c-.6-.2-1-.5-1-1.1 0-.6.5-1.1 1.1-1.1.5 0 1 .2 1.3.5" fill="none" stroke="currentColor" stroke-width="1.5" stroke-linecap="round"/>
  </g>
  
  <!-- React -->
  <g id="logo-react">
    <ellipse cx="12" cy="12" rx="10" ry="3.5" transform="rotate(30 12 12)" fill="none" stroke="currentColor" stroke-width="1.5"/>
    <ellipse cx="12" cy="12" rx="10" ry="3.5" transform="rotate(90 12 12)" fill="none" stroke="currentColor" stroke-width="1.5"/>
    <ellipse cx="12" cy="12" rx="10" ry="3.5" transform="rotate(150 12 12)" fill="none" stroke="currentColor" stroke-width="1.5"/>
    <circle cx="12" cy="12" r="1.5" fill="currentColor"/>
  </g>
  
  <!-- HTML5 -->
  <g id="logo-html5">
    <path d="M4 3h16l-1.5 15-8.5 3-8.5-3z" fill="none" stroke="currentColor" stroke-width="1.5" stroke-linejoin="round"/>
    <path d="M17 8H8.5l.3 3H16l-.5 5-3.5 1-3.5-1-.2-2h2l.1 1 1.6.4 1.6-.4.2-2H8.8l-.5-5H17.2z" fill="none" stroke="currentColor" stroke-width="1.2" stroke-linejoin="round"/>
  </g>
  
  <!-- CSS3 -->
  <g id="logo-css3">
    <path d="M4 3h16l-1.5 15-8.5 3-8.5-3z" fill="none" stroke="currentColor" stroke-width="1.5" stroke-linejoin="round"/>
    <path d="M17 8H8.8l.2 2H16l-.5 5-3.5 1-3.5-1-.1-1h2l.1.5 1.5.3 1.5-.3.2-1.5H8.7l-.4-4H17.2z" fill="none" stroke="currentColor" stroke-width="1.2" stroke-linejoin="round"/>
  </g>
  
  <!-- Tailwind -->
  <g id="logo-tailwind">
    <path d="M12 6c-2.3 0-3.7.9-4.3 2.7 1.2-.6 2.3-.3 3 .8.5.8 1.2 1.9 2.7 1.9 2.3 0 3.7-.9 4.3-2.7-1.2.6-2.3.3-3-.8-.5-.8-1.2-1.9-2.7-1.9zm-4.3 6.9c-2.3 0-3.7.9-4.3 2.7 1.2-.6 2.3-.3 3 .8.5.8 1.2 1.9 2.7 1.9 2.3 0 3.7-.9 4.3-2.7-1.2.6-2.3.3-3-.8-.5-.8-1.2-1.9-2.7-1.9z" fill="none" stroke="currentColor" stroke-width="1.5" stroke-linejoin="round"/>
  </g>
  
  <!-- Vite -->
  <g id="logo-vite">
    <path d="M3 5l9 16 9-16z" fill="none" stroke="currentColor" stroke-width="1.5" stroke-linejoin="round"/>
    <path d="M12.5 6.5l-3 5.5h3L11.5 17.5l4-7h-3l1.5-4z" fill="currentColor"/>
  </g>
  
  <!-- Node.js -->
  <g id="logo-nodejs">
    <polygon points="12,2 21,7 21,17 12,22 3,17 3,7" fill="none" stroke="currentColor" stroke-width="1.5" stroke-linejoin="round"/>
    <path d="M12 7.5v9M8.5 11c0 2 2 3.5 3.5 3.5s3.5-1.5 3.5-3.5" fill="none" stroke="currentColor" stroke-width="1.2" stroke-linecap="round"/>
  </g>
  
  <!-- Express -->
  <g id="logo-express">
    <circle cx="12" cy="12" r="9" fill="none" stroke="currentColor" stroke-width="1.5"/>
    <path d="M7 13c0-1.5 1-2.5 2.5-2.5s2.5 1 2.5 2.5h-5c0 1 .8 1.5 1.5 1.5h2.5M14 10l2 2 2-2M18 10l-2 2-2-2 M14 15.5l4-3.5" fill="none" stroke="currentColor" stroke-width="1.5" stroke-linecap="round" stroke-linejoin="round"/>
  </g>
  
  <!-- FastAPI -->
  <g id="logo-fastapi">
    <circle cx="12" cy="12" r="9.5" fill="none" stroke="currentColor" stroke-width="1.5"/>
    <path d="M13 16.5l-4-5.5h3.5l-.5-3.5 4 5.5h-3.5z" fill="currentColor"/>
  </g>
  
  <!-- Flask -->
  <g id="logo-flask">
    <path d="M9 3h6v2h-1.5v4.5l4 6c1.5 2.2.3 5-2.5 5H9c-2.8 0-4-2.8-2.5-5l4-6V5H9V3z" fill="none" stroke="currentColor" stroke-width="1.5" stroke-linecap="round" stroke-linejoin="round"/>
    <line x1="8.5" y1="15" x2="15.5" y2="15" stroke="currentColor" stroke-width="1.2"/>
  </g>
  
  <!-- TensorFlow -->
  <g id="logo-tensorflow">
    <polygon points="12,2 21,7 21,17 12,22 3,17 3,7" fill="none" stroke="currentColor" stroke-width="1.5" stroke-linejoin="round"/>
    <path d="M12 5v12M7.5 9h9" fill="none" stroke="currentColor" stroke-width="1.5" stroke-linecap="round"/>
  </g>
  
  <!-- OpenCV -->
  <g id="logo-opencv">
    <circle cx="12" cy="7.5" r="3.5" fill="none" stroke="currentColor" stroke-width="1.8"/>
    <circle cx="7.5" cy="15.5" r="3.5" fill="none" stroke="currentColor" stroke-width="1.8"/>
    <circle cx="16.5" cy="15.5" r="3.5" fill="none" stroke="currentColor" stroke-width="1.8"/>
  </g>
  
  <!-- Scikit-learn -->
  <g id="logo-scikitlearn">
    <rect x="4" y="4" width="7" height="7" rx="1.5" fill="none" stroke="currentColor" stroke-width="1.5"/>
    <rect x="13" y="13" width="7" height="7" rx="1.5" fill="none" stroke="currentColor" stroke-width="1.5"/>
    <circle cx="12" cy="12" r="3.5" fill="none" stroke="currentColor" stroke-width="1.5"/>
  </g>
  
  <!-- MongoDB -->
  <g id="logo-mongodb">
    <path d="M12 2C10 6 7.5 9 7.5 12.5c0 3 2 5.5 4.5 5.5s4.5-2.5 4.5-5.5C16.5 9 14 6 12 2z M12 3v15" fill="none" stroke="currentColor" stroke-width="1.5" stroke-linejoin="round"/>
  </g>
  
  <!-- MySQL -->
  <g id="logo-mysql">
    <path d="M21 8.5c-1.5-.5-3.5.5-4.5 1.5-1.5-1-3-1.5-5-1.5-5 0-8.5 3-9.5 7 1.5-1.5 3.5-2 5.5-2 1 1 2.5 2.5 4.5 2.5 2 0 4-1.5 5.5-3 .5 1.5 1.5 2.5 2.5 2.5.5 0 .5-1 .5-1.5s-.5-1.5-.5-2.5c.5-1 1-1.5.5-3.5z" fill="none" stroke="currentColor" stroke-width="1.5" stroke-linejoin="round"/>
  </g>
  
  <!-- PostgreSQL -->
  <g id="logo-postgresql">
    <path d="M19 10c0-3.3-2.7-6-6-6S7 6.7 7 10c0 1.8.8 3.5 2.2 4.6-.2.4-.4.9-.4 1.4 0 1.1.9 2 2 2h2c1.1 0 2-.9 2-2 0-.5-.2-1-.4-1.4 1.4-1.1 2.2-2.8 2.2-4.6z M12 6v8M10 9h4" fill="none" stroke="currentColor" stroke-width="1.5" stroke-linejoin="round"/>
  </g>
  
  <!-- Firebase -->
  <g id="logo-firebase">
    <path d="M3.9 16.2L11 2.4c.4-.7 1.4-.7 1.8 0l2 3.8 M4.5 16.5l7.5-11.5 3 5.5 M19.3 11c.5.5.5 1.4-.1 1.8L12 18.5c-.6.5-1.4.5-2 0L3.9 16.2z" fill="none" stroke="currentColor" stroke-width="1.5" stroke-linejoin="round"/>
  </g>
  
  <!-- Terraform -->
  <g id="logo-terraform">
    <path d="M3 6l4.5-2.5v5L3 11V6zm5.5-3L13 5.5v5L8.5 8V3zM3 12.5l4.5-2.5v5L3 17.5v-5zm11-1.5l4.5-2.5v5L14 16v-5z" fill="none" stroke="currentColor" stroke-width="1.5" stroke-linejoin="round"/>
  </g>
  
  <!-- Docker -->
  <g id="logo-docker">
    <path d="M2 13.5c0 2.2 1.8 4 4 4h10c3 0 5-2 6-4.5.3-.8 0-1.5-.8-1.5h-5.7c-.5-1.5-2-2.5-3.5-2.5-2 0-3.5 1.5-3.5 3.5v1h-1v-1c0-1-.8-1.8-1.8-1.8S6.5 11.5 6.5 12.5v1H2.2 M6 6h2v2H6 M9 6h2v2H9 M12 6h2v2h-2 M6 9h2v2H6 M9 9h2v2H9 M12 9h2v2h-2 M15 9h2v2h-2" fill="none" stroke="currentColor" stroke-width="1.2" stroke-linejoin="round"/>
  </g>
  
  <!-- Linux -->
  <g id="logo-linux">
    <path d="M12 2c-3.3 0-6 2.7-6 6 0 1.5.5 2.8 1.4 3.8C6.5 12.5 6 13.5 6 15c0 2.8 2.7 4.5 6 4.5s6-1.7 6-4.5c0-1.5-.5-2.5-1.4-3.2.9-1 1.4-2.3 1.4-3.8 0-3.3-2.7-6-6-6z" fill="none" stroke="currentColor" stroke-width="1.5"/>
    <circle cx="9.5" cy="7.5" r="0.75" fill="currentColor"/>
    <circle cx="14.5" cy="7.5" r="0.75" fill="currentColor"/>
    <path d="M10 11.5c1 1 3 1 4 0" fill="none" stroke="currentColor" stroke-width="1.2"/>
  </g>
  
  <!-- Git -->
  <g id="logo-git">
    <circle cx="18" cy="18" r="2.5" fill="none" stroke="currentColor" stroke-width="1.5"/>
    <circle cx="6" cy="6" r="2.5" fill="none" stroke="currentColor" stroke-width="1.5"/>
    <circle cx="6" cy="18" r="2.5" fill="none" stroke="currentColor" stroke-width="1.5"/>
    <path d="M6 8.5v7M6 18c0-3.5 3-4.5 6-4.5M12 13.5l3.5 2" fill="none" stroke="currentColor" stroke-width="1.5" stroke-linecap="round"/>
  </g>
  
  <!-- VS Code -->
  <g id="logo-vscode">
    <path d="M18.5 4.5l-6-3.5c-.5-.3-1.1 0-1.1.6v3.2L6 1.8c-.3-.3-.8-.3-1.1 0L1.5 6.2c-.3.3-.3.8 0 1.1L5.5 11 1.5 14.7c-.3.3-.3.8 0 1.1l3.4 3.4c.3.3.8.3 1.1 0l5.4-3.9v3.2c0 .6.6.9 1.1.6l6-3.5c.3-.2.5-.5.5-.8v-11c0-.3-.2-.6-.5-.8z M12.5 12L8 8.5l4.5-3.5v7z" fill="none" stroke="currentColor" stroke-width="1.5" stroke-linejoin="round"/>
  </g>
  
  <!-- Postman -->
  <g id="logo-postman">
    <path d="M12 2c-.5 0-3 2-3 5v6c0 .5-.5 1-1 1H7c-.5 0-1 .5-1 1v4l3-1v2h6v-2l3 1v-4c0-.5-.5-1-1-1h-1c-.5 0-1-.5-1-1V7c0-3-2.5-5-3-5z" fill="none" stroke="currentColor" stroke-width="1.5" stroke-linejoin="round"/>
    <circle cx="12" cy="8.5" r="1.5" fill="currentColor"/>
  </g>
  
  <!-- GitHub Actions -->
  <g id="logo-githubactions">
    <circle cx="6" cy="12" r="2.5" fill="none" stroke="currentColor" stroke-width="1.5"/>
    <circle cx="18" cy="12" r="2.5" fill="none" stroke="currentColor" stroke-width="1.5"/>
    <circle cx="12" cy="6" r="2.5" fill="none" stroke="currentColor" stroke-width="1.5"/>
    <circle cx="12" cy="18" r="2.5" fill="none" stroke="currentColor" stroke-width="1.5"/>
    <line x1="12" y1="8.5" x2="12" y2="15.5" stroke="currentColor" stroke-width="1.5"/>
    <line x1="8.5" y1="12" x2="15.5" y2="12" stroke="currentColor" stroke-width="1.5"/>
  </g>
</defs>

<style>
  @keyframes tkBreathe{0%,100%{stroke-opacity:0.25}50%{stroke-opacity:0.65}}
  @keyframes tkBlink{0%,100%{opacity:1}50%{opacity:0.3}}
  @keyframes tkRing{0%{r:4px;opacity:0.8}100%{r:10px;opacity:0}}
  @keyframes tkFlow{0%{stroke-dashoffset:80}100%{stroke-dashoffset:0}}
  
  .tkBorder{fill:none;stroke:#00FF88;stroke-width:1.5;animation:tkBreathe 4s ease-in-out infinite}
  .tkCorner{fill:none;stroke:#00FF88;stroke-opacity:0.8;filter:url(#tkGlow)}
  .tkDot{animation:tkBlink 2.5s infinite ease-in-out}
  .tkRingAnim{animation:tkRing 2.5s infinite cubic-bezier(0.215,0.61,0.355,1)}
  .tkTrace{stroke:#00FF88;stroke-opacity:0.18;stroke-dasharray:8 12;animation:tkFlow 6s linear infinite;fill:none;stroke-width:1.2}
  
  /* Containers styling */
  .tkTag {
    fill: #060e0a;
    fill-opacity: 0.85;
    stroke: #00FF88;
    stroke-opacity: 0.2;
    stroke-width: 1;
    rx: 5;
    transition: all 0.3s ease;
  }
  .tkTagTxt {
    font-family: 'SFMono-Regular', Consolas, monospace;
    font-size: 7.2px;
    fill: #4A6A55;
    transition: all 0.3s ease;
  }
  .tkTagLogo {
    color: #7CFF5E;
    opacity: 0.65;
    transition: all 0.3s ease;
  }
  
  /* Hover effects */
  .tkTagContainer {
    cursor: pointer;
  }
  .tkTagContainer:hover .tkTag {
    stroke: #7CFF5E;
    stroke-opacity: 0.95;
    fill: #0c2016;
    fill-opacity: 0.95;
    filter: url(#tkGlow);
  }
  .tkTagContainer:hover .tkTagTxt {
    fill: #7CFF5E;
    font-weight: bold;
    text-shadow: 0 0 4px rgba(0, 255, 136, 0.4);
  }
  .tkTagContainer:hover .tkTagLogo {
    color: #7CFF5E;
    opacity: 1;
    filter: drop-shadow(0 0 2px rgba(124, 255, 94, 0.8));
  }
  
  .tkCat{font-family:'SFMono-Regular',Consolas,monospace;font-size:10px;font-weight:bold;fill:#00FF88}
  .tkMute{font-family:'SFMono-Regular',Consolas,monospace;fill:#3A5E48}
  .tkHead{font-family:'SFMono-Regular',Consolas,monospace;font-size:22px;font-weight:bold;fill:#E9FFD7}
  .tkStatus{font-family:'SFMono-Regular',Consolas,monospace;font-size:10px;font-weight:bold;fill:#7CFF5E}
</style>

<!-- Background -->
<rect width="850" height="600" fill="url(#tkBg)" rx="10"/>
<rect width="850" height="600" fill="url(#tkGrid)" rx="10"/>

<!-- PCB Background Traces -->
<g fill="none" stroke-opacity="0.12" stroke-width="1">
  <path d="M 15 75 L 15 25 L 75 25" stroke="#00FF88"/>
  <circle cx="75" cy="25" r="2" fill="#00FF88" fill-opacity="0.3" stroke="none"/>
  <path d="M 820 15 L 750 15 L 730 35 L 680 35" stroke="#00FF88" class="tkTrace"/>
  <circle cx="680" cy="35" r="1.5" fill="#00FF88" fill-opacity="0.25" stroke="none"/>
  <path d="M 835 525 L 835 575 L 775 575" stroke="#00FF88"/>
  <circle cx="775" cy="575" r="2" fill="#00FF88" fill-opacity="0.3" stroke="none"/>
  <path d="M 30 590 L 110 590 L 130 570 L 190 570" stroke="#00FF88" class="tkTrace"/>
  <circle cx="190" cy="570" r="1.5" fill="#00FF88" fill-opacity="0.25" stroke="none"/>
</g>

<!-- Outer Border (Chamfered) -->
<path d="M 20 8 L 830 8 L 842 20 L 842 580 L 830 592 L 20 592 L 8 580 L 8 20 Z" class="tkBorder"/>

<!-- Corner Accents -->
<path d="M 8 45 L 8 20 L 20 8 L 45 8" class="tkCorner" stroke-width="2"/>
<path d="M 842 45 L 842 20 L 830 8 L 805 8" class="tkCorner" stroke-width="2"/>
<path d="M 8 555 L 8 580 L 20 592 L 45 592" class="tkCorner" stroke-width="2"/>
<path d="M 842 555 L 842 580 L 830 592 L 805 592" class="tkCorner" stroke-width="2"/>

<!-- Header -->
<circle cx="35" cy="35" r="4" fill="#7CFF5E" class="tkDot"/>
<circle cx="35" cy="35" r="4" stroke="#7CFF5E" stroke-width="1.5" fill="none" class="tkRingAnim"/>
<text x="50" y="39" class="tkStatus">SYS.TOOLKIT // LOADED</text>
<text x="30" y="64" class="tkHead">ENGINEERING TOOLKIT</text>
<text x="815" y="64" class="tkMute" font-size="9" text-anchor="end">MODULES: 28 // SUBSYSTEMS: 7</text>

<!-- Divider -->
<line x1="10" y1="74" x2="840" y2="74" stroke="#00FF88" stroke-opacity="0.2"/>
<polygon points="415,74 425,80 435,80 445,74" fill="#040506" stroke="#00FF88" stroke-opacity="0.4" stroke-width="0.8"/>
<text x="430" y="79" font-family="'SFMono-Regular',Consolas,monospace" font-size="6" fill="#00FF88" text-anchor="middle" fill-opacity="0.7">SYS_BUS</text>

<!-- Vertical Main PCB Bus -->
<line x1="28" y1="85" x2="28" y2="575" stroke="#1A4A28" stroke-width="1.5" stroke-opacity="0.5"/>

<!-- Dynamic Interactive PCB Connectors between categories (on the right) -->
<g>
  <!-- Programming -> Backend -->
  <path d="M 368,125 L 420,125 L 420,269 L 302,269" class="tkTrace" />
  <!-- Frontend -> Backend -->
  <path d="M 368,197 L 390,197 L 390,269 L 302,269" class="tkTrace" />
  <!-- Backend -> Databases -->
  <path d="M 302,269 L 330,269 L 330,413 L 302,413" class="tkTrace" />
  <!-- AI & ML -> Databases -->
  <path d="M 236,341 L 280,341 L 280,413" class="tkTrace" />
  <!-- Databases -> Cloud & DevOps -->
  <path d="M 302,413 L 350,413 L 350,485 L 302,485" class="tkTrace" />
  <!-- Cloud & DevOps -> Developer Tools -->
  <path d="M 302,485 L 320,485 L 320,557 L 236,557" class="tkTrace" />

  <!-- PCB Node Circles -->
  <circle cx="420" cy="125" r="1.8" fill="#00FF88" fill-opacity="0.6" />
  <circle cx="390" cy="197" r="1.8" fill="#00FF88" fill-opacity="0.6" />
  <circle cx="330" cy="269" r="1.8" fill="#00FF88" fill-opacity="0.6" />
  <circle cx="280" cy="341" r="1.8" fill="#00FF88" fill-opacity="0.6" />
  <circle cx="350" cy="413" r="1.8" fill="#00FF88" fill-opacity="0.6" />
  <circle cx="320" cy="485" r="1.8" fill="#00FF88" fill-opacity="0.6" />
</g>


<!-- ═══════════ ROW 1: PROGRAMMING (y_container=104) ═══════════ -->
<g>
  <!-- Category Connector -->
  <circle cx="28" cy="125" r="3" fill="#0D2016" stroke="#00FF88" stroke-opacity="0.5" stroke-width="1"/>
  <circle cx="28" cy="125" r="1.2" fill="#7CFF5E" fill-opacity="0.6"/>
  <line x1="31" y1="125" x2="48" y2="125" stroke="#1A4A28" stroke-width="1" stroke-opacity="0.5"/>
  
  <text x="48" y="96" class="tkCat">[01 // PROGRAMMING]</text>
  <line x1="200" y1="93" x2="820" y2="93" stroke="#00FF88" stroke-opacity="0.06"/>
  
  <!-- Java -->
  <g class="tkTagContainer" transform="translate(48, 104)">
    <rect width="56" height="42" class="tkTag"/>
    <use href="#logo-java" x="18" y="5" width="20" height="20" class="tkTagLogo"/>
    <text x="28" y="34" class="tkTagTxt" text-anchor="middle">Java</text>
  </g>
  
  <!-- JavaScript -->
  <g class="tkTagContainer" transform="translate(114, 104)">
    <rect width="56" height="42" class="tkTag"/>
    <use href="#logo-javascript" x="18" y="5" width="20" height="20" class="tkTagLogo"/>
    <text x="28" y="34" class="tkTagTxt" text-anchor="middle">JavaScript</text>
  </g>
  
  <!-- Python -->
  <g class="tkTagContainer" transform="translate(180, 104)">
    <rect width="56" height="42" class="tkTag"/>
    <use href="#logo-python" x="18" y="5" width="20" height="20" class="tkTagLogo"/>
    <text x="28" y="34" class="tkTagTxt" text-anchor="middle">Python</text>
  </g>
  
  <!-- Go -->
  <g class="tkTagContainer" transform="translate(246, 104)">
    <rect width="56" height="42" class="tkTag"/>
    <use href="#logo-go" x="18" y="5" width="20" height="20" class="tkTagLogo"/>
    <text x="28" y="34" class="tkTagTxt" text-anchor="middle">Go</text>
  </g>
  
  <!-- TypeScript -->
  <g class="tkTagContainer" transform="translate(312, 104)">
    <rect width="56" height="42" class="tkTag"/>
    <use href="#logo-typescript" x="18" y="5" width="20" height="20" class="tkTagLogo"/>
    <text x="28" y="34" class="tkTagTxt" text-anchor="middle">TypeScript</text>
  </g>
</g>


<!-- ═══════════ ROW 2: FRONTEND (y_container=176) ═══════════ -->
<g>
  <!-- Category Connector -->
  <circle cx="28" cy="197" r="3" fill="#0D2016" stroke="#00FF88" stroke-opacity="0.5" stroke-width="1"/>
  <circle cx="28" cy="197" r="1.2" fill="#7CFF5E" fill-opacity="0.6"/>
  <line x1="31" y1="197" x2="48" y2="197" stroke="#1A4A28" stroke-width="1" stroke-opacity="0.5"/>
  
  <text x="48" y="168" class="tkCat">[02 // FRONTEND]</text>
  <line x1="180" y1="165" x2="820" y2="165" stroke="#00FF88" stroke-opacity="0.06"/>
  
  <!-- React -->
  <g class="tkTagContainer" transform="translate(48, 176)">
    <rect width="56" height="42" class="tkTag"/>
    <use href="#logo-react" x="18" y="5" width="20" height="20" class="tkTagLogo"/>
    <text x="28" y="34" class="tkTagTxt" text-anchor="middle">React</text>
  </g>
  
  <!-- HTML5 -->
  <g class="tkTagContainer" transform="translate(114, 176)">
    <rect width="56" height="42" class="tkTag"/>
    <use href="#logo-html5" x="18" y="5" width="20" height="20" class="tkTagLogo"/>
    <text x="28" y="34" class="tkTagTxt" text-anchor="middle">HTML5</text>
  </g>
  
  <!-- CSS3 -->
  <g class="tkTagContainer" transform="translate(180, 176)">
    <rect width="56" height="42" class="tkTag"/>
    <use href="#logo-css3" x="18" y="5" width="20" height="20" class="tkTagLogo"/>
    <text x="28" y="34" class="tkTagTxt" text-anchor="middle">CSS3</text>
  </g>
  
  <!-- Tailwind -->
  <g class="tkTagContainer" transform="translate(246, 176)">
    <rect width="56" height="42" class="tkTag"/>
    <use href="#logo-tailwind" x="18" y="5" width="20" height="20" class="tkTagLogo"/>
    <text x="28" y="34" class="tkTagTxt" text-anchor="middle">Tailwind</text>
  </g>
  
  <!-- Vite -->
  <g class="tkTagContainer" transform="translate(312, 176)">
    <rect width="56" height="42" class="tkTag"/>
    <use href="#logo-vite" x="18" y="5" width="20" height="20" class="tkTagLogo"/>
    <text x="28" y="34" class="tkTagTxt" text-anchor="middle">Vite</text>
  </g>
</g>


<!-- ═══════════ ROW 3: BACKEND (y_container=248) ═══════════ -->
<g>
  <!-- Category Connector -->
  <circle cx="28" cy="269" r="3" fill="#0D2016" stroke="#00FF88" stroke-opacity="0.5" stroke-width="1"/>
  <circle cx="28" cy="269" r="1.2" fill="#7CFF5E" fill-opacity="0.6"/>
  <line x1="31" y1="269" x2="48" y2="269" stroke="#1A4A28" stroke-width="1" stroke-opacity="0.5"/>
  
  <text x="48" y="240" class="tkCat">[03 // BACKEND]</text>
  <line x1="170" y1="237" x2="820" y2="237" stroke="#00FF88" stroke-opacity="0.06"/>
  
  <!-- Node.js -->
  <g class="tkTagContainer" transform="translate(48, 248)">
    <rect width="56" height="42" class="tkTag"/>
    <use href="#logo-nodejs" x="18" y="5" width="20" height="20" class="tkTagLogo"/>
    <text x="28" y="34" class="tkTagTxt" text-anchor="middle">Node.js</text>
  </g>
  
  <!-- Express -->
  <g class="tkTagContainer" transform="translate(114, 248)">
    <rect width="56" height="42" class="tkTag"/>
    <use href="#logo-express" x="18" y="5" width="20" height="20" class="tkTagLogo"/>
    <text x="28" y="34" class="tkTagTxt" text-anchor="middle">Express</text>
  </g>
  
  <!-- FastAPI -->
  <g class="tkTagContainer" transform="translate(180, 248)">
    <rect width="56" height="42" class="tkTag"/>
    <use href="#logo-fastapi" x="18" y="5" width="20" height="20" class="tkTagLogo"/>
    <text x="28" y="34" class="tkTagTxt" text-anchor="middle">FastAPI</text>
  </g>
  
  <!-- Flask -->
  <g class="tkTagContainer" transform="translate(246, 248)">
    <rect width="56" height="42" class="tkTag"/>
    <use href="#logo-flask" x="18" y="5" width="20" height="20" class="tkTagLogo"/>
    <text x="28" y="34" class="tkTagTxt" text-anchor="middle">Flask</text>
  </g>
</g>


<!-- ═══════════ ROW 4: AI & MACHINE LEARNING (y_container=320) ═══════════ -->
<g>
  <!-- Category Connector -->
  <circle cx="28" cy="341" r="3" fill="#0D2016" stroke="#00FF88" stroke-opacity="0.5" stroke-width="1"/>
  <circle cx="28" cy="341" r="1.2" fill="#7CFF5E" fill-opacity="0.6"/>
  <line x1="31" y1="341" x2="48" y2="341" stroke="#1A4A28" stroke-width="1" stroke-opacity="0.5"/>
  
  <text x="48" y="312" class="tkCat">[04 // AI &amp; MACHINE LEARNING]</text>
  <line x1="280" y1="309" x2="820" y2="309" stroke="#00FF88" stroke-opacity="0.06"/>
  
  <!-- TensorFlow -->
  <g class="tkTagContainer" transform="translate(48, 320)">
    <rect width="56" height="42" class="tkTag"/>
    <use href="#logo-tensorflow" x="18" y="5" width="20" height="20" class="tkTagLogo"/>
    <text x="28" y="34" class="tkTagTxt" text-anchor="middle">TensorFlow</text>
  </g>
  
  <!-- OpenCV -->
  <g class="tkTagContainer" transform="translate(114, 320)">
    <rect width="56" height="42" class="tkTag"/>
    <use href="#logo-opencv" x="18" y="5" width="20" height="20" class="tkTagLogo"/>
    <text x="28" y="34" class="tkTagTxt" text-anchor="middle">OpenCV</text>
  </g>
  
  <!-- Scikit-learn -->
  <g class="tkTagContainer" transform="translate(180, 320)">
    <rect width="56" height="42" class="tkTag"/>
    <use href="#logo-scikitlearn" x="18" y="5" width="20" height="20" class="tkTagLogo"/>
    <text x="28" y="34" class="tkTagTxt" text-anchor="middle">scikit-learn</text>
  </g>
</g>


<!-- ═══════════ ROW 5: DATABASES (y_container=392) ═══════════ -->
<g>
  <!-- Category Connector -->
  <circle cx="28" cy="413" r="3" fill="#0D2016" stroke="#00FF88" stroke-opacity="0.5" stroke-width="1"/>
  <circle cx="28" cy="413" r="1.2" fill="#7CFF5E" fill-opacity="0.6"/>
  <line x1="31" y1="413" x2="48" y2="413" stroke="#1A4A28" stroke-width="1" stroke-opacity="0.5"/>
  
  <text x="48" y="384" class="tkCat">[05 // DATABASES]</text>
  <line x1="180" y1="381" x2="820" y2="381" stroke="#00FF88" stroke-opacity="0.06"/>
  
  <!-- MongoDB -->
  <g class="tkTagContainer" transform="translate(48, 392)">
    <rect width="56" height="42" class="tkTag"/>
    <use href="#logo-mongodb" x="18" y="5" width="20" height="20" class="tkTagLogo"/>
    <text x="28" y="34" class="tkTagTxt" text-anchor="middle">MongoDB</text>
  </g>
  
  <!-- MySQL -->
  <g class="tkTagContainer" transform="translate(114, 392)">
    <rect width="56" height="42" class="tkTag"/>
    <use href="#logo-mysql" x="18" y="5" width="20" height="20" class="tkTagLogo"/>
    <text x="28" y="34" class="tkTagTxt" text-anchor="middle">MySQL</text>
  </g>
  
  <!-- PostgreSQL -->
  <g class="tkTagContainer" transform="translate(180, 392)">
    <rect width="56" height="42" class="tkTag"/>
    <use href="#logo-postgresql" x="18" y="5" width="20" height="20" class="tkTagLogo"/>
    <text x="28" y="34" class="tkTagTxt" text-anchor="middle">PostgreSQL</text>
  </g>
  
  <!-- Firebase -->
  <g class="tkTagContainer" transform="translate(246, 392)">
    <rect width="56" height="42" class="tkTag"/>
    <use href="#logo-firebase" x="18" y="5" width="20" height="20" class="tkTagLogo"/>
    <text x="28" y="34" class="tkTagTxt" text-anchor="middle">Firebase</text>
  </g>
</g>


<!-- ═══════════ ROW 6: CLOUD & DEVOPS (y_container=464) ═══════════ -->
<g>
  <!-- Category Connector -->
  <circle cx="28" cy="485" r="3" fill="#0D2016" stroke="#00FF88" stroke-opacity="0.5" stroke-width="1"/>
  <circle cx="28" cy="485" r="1.2" fill="#7CFF5E" fill-opacity="0.6"/>
  <line x1="31" y1="485" x2="48" y2="485" stroke="#1A4A28" stroke-width="1" stroke-opacity="0.5"/>
  
  <text x="48" y="456" class="tkCat">[06 // CLOUD &amp; DEVOPS]</text>
  <line x1="220" y1="453" x2="820" y2="453" stroke="#00FF88" stroke-opacity="0.06"/>
  
  <!-- Terraform -->
  <g class="tkTagContainer" transform="translate(48, 464)">
    <rect width="56" height="42" class="tkTag"/>
    <use href="#logo-terraform" x="18" y="5" width="20" height="20" class="tkTagLogo"/>
    <text x="28" y="34" class="tkTagTxt" text-anchor="middle">Terraform</text>
  </g>
  
  <!-- Docker -->
  <g class="tkTagContainer" transform="translate(114, 464)">
    <rect width="56" height="42" class="tkTag"/>
    <use href="#logo-docker" x="18" y="5" width="20" height="20" class="tkTagLogo"/>
    <text x="28" y="34" class="tkTagTxt" text-anchor="middle">Docker</text>
  </g>
  
  <!-- Linux -->
  <g class="tkTagContainer" transform="translate(180, 464)">
    <rect width="56" height="42" class="tkTag"/>
    <use href="#logo-linux" x="18" y="5" width="20" height="20" class="tkTagLogo"/>
    <text x="28" y="34" class="tkTagTxt" text-anchor="middle">Linux</text>
  </g>
  
  <!-- Git -->
  <g class="tkTagContainer" transform="translate(246, 464)">
    <rect width="56" height="42" class="tkTag"/>
    <use href="#logo-git" x="18" y="5" width="20" height="20" class="tkTagLogo"/>
    <text x="28" y="34" class="tkTagTxt" text-anchor="middle">Git</text>
  </g>
</g>


<!-- ═══════════ ROW 7: DEVELOPER TOOLS (y_container=536) ═══════════ -->
<g>
  <!-- Category Connector -->
  <circle cx="28" cy="557" r="3" fill="#0D2016" stroke="#00FF88" stroke-opacity="0.5" stroke-width="1"/>
  <circle cx="28" cy="557" r="1.2" fill="#7CFF5E" fill-opacity="0.6"/>
  <line x1="31" y1="557" x2="48" y2="557" stroke="#1A4A28" stroke-width="1" stroke-opacity="0.5"/>
  
  <text x="48" y="528" class="tkCat">[07 // DEVELOPER TOOLS]</text>
  <line x1="225" y1="525" x2="820" y2="525" stroke="#00FF88" stroke-opacity="0.06"/>
  
  <!-- VS Code -->
  <g class="tkTagContainer" transform="translate(48, 536)">
    <rect width="56" height="42" class="tkTag"/>
    <use href="#logo-vscode" x="18" y="5" width="20" height="20" class="tkTagLogo"/>
    <text x="28" y="34" class="tkTagTxt" text-anchor="middle">VS Code</text>
  </g>
  
  <!-- Postman -->
  <g class="tkTagContainer" transform="translate(114, 536)">
    <rect width="56" height="42" class="tkTag"/>
    <use href="#logo-postman" x="18" y="5" width="20" height="20" class="tkTagLogo"/>
    <text x="28" y="34" class="tkTagTxt" text-anchor="middle">Postman</text>
  </g>
  
  <!-- GitHub Actions -->
  <g class="tkTagContainer" transform="translate(180, 536)">
    <rect width="56" height="42" class="tkTag"/>
    <use href="#logo-githubactions" x="18" y="5" width="20" height="20" class="tkTagLogo"/>
    <text x="28" y="34" class="tkTagTxt" text-anchor="middle">GH Actions</text>
  </g>
</g>

<!-- Footer -->
<text x="815" y="588" class="tkMute" font-size="7" text-anchor="end">MODULE_STATUS: ALL_NOMINAL // SUBSYSTEMS: OPERATIONAL</text>
</svg>
